<?xml version="1.0" standalone="no"?>
<!DOCTYPE svg PUBLIC "-//W3C//DTD SVG 20010904//EN"
 "http://www.w3.org/TR/2001/REC-SVG-20010904/DTD/svg10.dtd">
<svg version="1.0" xmlns="http://www.w3.org/2000/svg"
 width="1200.000000pt" height="1200.000000pt" viewBox="0 0 1200.000000 1200.000000"
 preserveAspectRatio="xMidYMid meet">
<metadata>
Created by potrace 1.15, written by Peter Selinger 2001-2017
</metadata>
<g transform="translate(0.000000,1200.000000) scale(0.100000,-0.100000)"
fill="#000000" stroke="none">
<path d="M4650 8928 l1 -853 162 -110 c89 -60 417 -284 729 -497 l568 -387 -1
827 0 827 -687 492 c-378 271 -706 506 -729 523 l-43 32 0 -854z m212 540 c36
-42 62 -110 54 -142 -9 -35 -38 -41 -84 -17 -81 42 -134 170 -85 208 22 17 80
-8 115 -49z m355 -237 c50 -36 85 -105 81 -158 -3 -33 -6 -38 -31 -41 -44 -5
-100 38 -131 99 -56 112 -11 167 81 100z m-367 -139 c103 -103 82 -229 -27
-162 -61 37 -110 138 -92 188 6 16 17 22 40 22 25 0 43 -11 79 -48z m781 -151
c34 -37 63 -113 55 -145 -23 -93 -186 36 -186 148 0 46 23 59 70 40 19 -8 47
-27 61 -43z m-443 -75 c60 -31 112 -110 112 -170 0 -46 -23 -59 -70 -40 -49
21 -70 42 -96 99 -28 59 -30 88 -8 109 19 20 28 20 62 2z m-372 -125 c66 -40
119 -145 95 -190 -39 -71 -183 52 -183 157 0 54 34 66 88 33z m1161 -31 c61
-37 110 -138 92 -188 -6 -16 -17 -22 -40 -22 -25 0 -43 11 -79 48 -104 104
-83 230 27 162z m-383 -119 c61 -40 113 -152 89 -190 -28 -45 -124 2 -162 81
-20 43 -28 108 -14 121 13 13 58 7 87 -12z m-361 -139 c59 -55 87 -153 52
-182 -35 -29 -128 38 -161 116 -20 47 -17 81 7 98 26 18 61 7 102 -32z m-436
-83 c42 -16 73 -48 99 -104 29 -62 30 -90 3 -109 -29 -20 -69 -4 -114 45 -54
60 -73 130 -45 164 15 18 20 18 57 4z m1172 -38 c84 -43 138 -191 78 -214 -9
-3 -35 4 -59 16 -74 38 -132 162 -93 200 21 21 27 21 74 -2z m-391 -115 c102
-53 153 -216 68 -216 -59 0 -146 101 -146 170 0 57 26 73 78 46z m-370 -126
c70 -43 118 -166 77 -200 -49 -40 -174 82 -175 171 0 51 41 63 98 29z m795
-168 c59 -56 87 -146 55 -179 -13 -13 -22 -13 -50 -4 -44 14 -81 53 -107 111
-26 58 -26 85 0 104 26 18 61 7 102 -32z m-403 -101 c40 -28 81 -94 87 -138 4
-34 2 -43 -17 -56 -27 -19 -61 -9 -103 31 -57 54 -86 149 -55 180 15 15 53 8
88 -17z m393 -272 c75 -62 108 -181 53 -195 -52 -13 -134 61 -156 141 -24 85
31 113 103 54z"/>
<path d="M8022 9369 c-16 -6 -20 -26 -31 -131 -23 -225 -20 -223 -70 -44 l-44
158 -36 -7 c-20 -4 -41 -10 -47 -13 -7 -5 3 -56 32 -157 23 -82 41 -151 40
-153 -2 -1 -49 59 -106 133 -56 74 -104 135 -106 135 -19 0 -74 -37 -70 -47 3
-7 46 -67 96 -133 49 -65 90 -122 90 -125 0 -3 -43 25 -95 61 l-95 66 0 -51
c0 -50 0 -51 55 -87 30 -21 54 -39 51 -41 -2 -2 -27 5 -55 16 l-51 19 0 -43
c0 -33 4 -45 18 -48 16 -4 16 -5 0 -6 -14 -1 -18 -10 -18 -36 0 -21 5 -35 13
-35 9 0 9 -2 0 -8 -9 -6 -13 -40 -12 -115 0 -59 2 -107 4 -107 2 0 16 5 32 10
l28 10 -33 -27 c-27 -24 -32 -35 -32 -71 l0 -43 58 42 c31 23 64 47 72 53 24
18 -6 -22 -73 -97 -58 -65 -58 -66 -55 -121 l3 -56 110 124 c60 69 111 124
112 122 2 -1 -31 -74 -73 -160 -41 -87 -73 -160 -71 -163 3 -2 23 -7 44 -10
l39 -5 79 166 c44 91 80 164 82 163 1 -2 -6 -75 -16 -162 -10 -88 -15 -164
-11 -168 4 -4 25 -5 47 -1 46 7 42 -9 64 212 7 67 16 119 19 115 4 -5 24 -71
45 -148 21 -77 41 -144 45 -148 8 -9 90 10 90 20 0 4 -18 71 -40 151 -23 79
-39 146 -37 149 3 2 49 -56 104 -130 l99 -133 43 18 c29 12 40 22 35 30 -4 7
-47 65 -94 128 -47 63 -90 121 -95 129 -4 7 55 -30 131 -83 182 -127 175 -123
213 -95 17 12 31 25 31 28 -1 3 -66 50 -146 105 -79 54 -143 100 -141 102 2 2
84 -26 183 -61 98 -36 184 -65 190 -65 6 0 21 11 34 26 20 20 22 27 10 34 -7
5 -94 37 -191 71 -98 35 -177 64 -176 65 2 2 307 -35 413 -50 27 -4 33 0 47
29 l16 33 -32 6 c-18 3 -119 15 -224 27 -106 13 -192 24 -190 25 1 1 49 5 107
9 58 3 157 11 220 16 63 5 123 9 133 9 13 0 17 8 17 35 l0 36 -52 -5 c-54 -5
-166 -13 -318 -21 -84 -4 -84 -4 139 51 l223 56 -6 31 c-3 17 -7 32 -9 33 -1
2 -101 -22 -221 -52 -120 -30 -220 -53 -222 -52 -1 2 87 43 197 92 109 48 199
92 199 96 0 4 -8 18 -18 29 l-17 22 -204 -90 c-113 -50 -206 -89 -208 -88 -1
2 74 57 167 122 176 123 181 128 130 155 -17 9 -42 -6 -330 -208 l-65 -45 41
44 c258 280 250 268 185 286 -21 5 -36 -6 -110 -88 -47 -52 -110 -119 -138
-149 l-53 -55 79 160 c52 107 74 162 67 167 -6 4 -26 8 -43 8 -32 0 -34 -3
-112 -157 -44 -87 -80 -149 -80 -138 -1 11 6 76 14 145 20 168 21 161 -14 158
-17 -1 -38 -5 -49 -9z"/>
<path d="M7580 6747 l0 -1294 200 -137 c110 -75 202 -136 205 -136 3 0 4 579
3 1287 l-3 1287 -185 133 c-102 73 -193 138 -202 144 -17 9 -18 -55 -18 -1284z"/>
<path d="M3195 6980 l0 -890 30 -24 c17 -13 32 -22 34 -20 3 3 5 404 5 891 l1
887 -25 23 c-14 13 -29 23 -35 23 -7 0 -10 -295 -10 -890z"/>
<path d="M2700 7677 c0 -110 94 -355 185 -482 48 -68 150 -167 196 -190 27
-15 29 -14 29 4 0 37 -28 166 -51 231 -65 190 -202 383 -318 448 l-41 23 0
-34z"/>
<path d="M3453 7520 c-65 -33 -108 -110 -115 -205 -3 -39 -1 -41 60 -82 71
-48 131 -67 180 -59 80 13 143 92 160 199 l9 58 -36 30 c-88 73 -186 95 -258
59z"/>
<path d="M3442 7083 c-59 -29 -100 -101 -116 -200 -6 -42 -6 -43 46 -82 109
-81 206 -89 278 -24 44 39 80 121 80 183 0 34 -5 42 -49 74 -87 64 -173 82
-239 49z"/>
<path d="M9415 3511 c-75 -33 -91 -134 -29 -192 21 -19 36 -24 81 -24 49 0 58
3 84 33 64 71 23 180 -71 188 -25 2 -54 0 -65 -5z"/>
<path d="M3145 3444 c-11 -2 -46 -6 -77 -9 l-58 -6 0 -480 0 -479 90 0 c89 0
90 0 90 24 0 28 15 43 23 22 9 -23 108 -66 153 -66 175 0 285 167 271 411 -7
121 -35 199 -91 255 -82 83 -210 86 -297 7 l-39 -35 0 181 0 181 -22 -1 c-13
-1 -32 -3 -43 -5z m226 -424 c35 -19 52 -70 57 -171 8 -158 -32 -249 -110
-249 -36 0 -84 24 -98 49 -5 11 -10 83 -10 162 l0 141 39 39 c41 41 81 50 122
29z"/>
<path d="M1420 3360 l0 -70 99 0 99 0 4 -332 c4 -368 5 -378 71 -446 61 -63
198 -79 319 -37 l46 16 -23 67 c-15 44 -27 66 -36 64 -57 -14 -120 -13 -144 2
l-25 16 0 395 0 395 -205 0 -205 0 0 -70z"/>
<path d="M4500 3360 l0 -70 99 0 99 0 4 -332 c4 -368 5 -378 71 -446 61 -63
198 -79 319 -37 l46 16 -23 67 c-15 44 -27 66 -36 64 -57 -14 -120 -13 -144 2
l-25 16 0 395 0 395 -205 0 -205 0 0 -70z"/>
<path d="M940 3374 c-100 -27 -184 -91 -236 -180 -13 -23 -34 -79 -45 -125
-39 -154 -12 -361 62 -473 100 -150 340 -189 559 -90 l60 27 0 228 0 229 -166
0 -165 0 6 -47 c14 -109 10 -103 71 -103 l54 0 0 -110 0 -109 -37 -10 c-102
-29 -171 -1 -213 84 -22 44 -25 66 -28 186 -6 200 25 289 118 337 62 32 131
27 199 -15 l49 -31 51 52 c28 28 51 55 51 59 0 4 -24 22 -52 41 -94 62 -222
81 -338 50z"/>
<path d="M6000 3346 c0 -8 20 -202 45 -430 25 -229 45 -423 45 -431 0 -12 21
-15 115 -15 113 0 115 0 115 23 0 34 63 587 67 583 3 -3 63 -559 63 -588 0
-16 12 -18 109 -18 l109 0 6 38 c9 56 96 813 96 834 0 16 -9 18 -90 18 -81 0
-90 -2 -90 -18 0 -36 -41 -666 -43 -669 -2 -1 -15 114 -31 255 -15 141 -30
274 -33 295 l-6 37 -88 0 c-84 0 -89 -1 -94 -22 -2 -13 -18 -142 -36 -288 -30
-257 -39 -313 -39 -237 0 49 -19 474 -25 562 -2 39 -5 73 -5 78 0 4 -43 7 -95
7 -75 0 -95 -3 -95 -14z"/>
<path d="M11270 3234 c-74 -39 -139 -55 -261 -64 -135 -10 -197 -31 -252 -88
-91 -93 -89 -224 4 -314 27 -27 45 -48 39 -48 -5 0 -21 -17 -35 -37 -18 -27
-25 -51 -25 -85 0 -96 75 -138 251 -138 109 0 147 -12 156 -48 17 -69 -31
-100 -155 -101 -94 -1 -140 17 -148 59 l-6 30 -89 0 c-99 0 -99 0 -79 -72 26
-91 110 -136 271 -145 201 -12 352 44 395 144 18 42 18 127 0 161 -8 15 -27
39 -43 54 -49 47 -97 61 -237 67 -108 5 -131 9 -140 24 -23 36 2 49 99 51 110
3 179 30 229 88 83 97 67 225 -37 289 l-30 17 49 7 c106 13 124 17 129 25 3 5
-5 40 -17 78 l-23 70 -45 -24z m-217 -205 c38 -17 51 -53 48 -132 -2 -45 -50
-87 -101 -87 -33 0 -48 6 -71 29 -25 26 -29 37 -29 86 0 49 4 60 29 86 32 32
79 38 124 18z"/>
<path d="M2437 3166 c-146 -41 -229 -168 -228 -351 0 -180 64 -290 201 -346
22 -9 71 -14 130 -14 84 0 102 3 152 28 95 47 150 131 169 261 20 134 -16 270
-93 346 -74 74 -220 108 -331 76z m152 -151 c49 -25 65 -75 65 -200 0 -125
-16 -175 -65 -200 -65 -34 -128 -9 -156 62 -25 66 -25 210 0 276 28 71 91 96
156 62z"/>
<path d="M3948 3170 c-25 -5 -71 -15 -102 -24 l-55 -16 21 -63 c12 -34 22 -64
24 -65 1 -2 37 4 79 13 45 10 99 15 132 13 48 -4 61 -10 85 -37 17 -19 28 -43
28 -60 l0 -28 -107 -6 c-126 -6 -202 -30 -253 -80 -44 -43 -60 -84 -60 -155 0
-80 31 -137 95 -177 43 -27 57 -30 129 -30 86 0 157 23 202 66 l21 20 30 -30
c24 -23 130 -69 138 -58 1 1 12 31 24 66 21 65 21 65 1 83 -11 10 -21 20 -21
21 -1 1 -4 95 -8 208 -6 196 -7 207 -30 241 -13 19 -39 45 -58 58 -63 43 -195
60 -315 40z m212 -448 c0 -48 -4 -62 -22 -80 -85 -79 -210 -39 -191 61 10 49
62 75 156 76 l57 1 0 -58z"/>
<path d="M7028 3170 c-25 -5 -71 -15 -102 -24 l-55 -16 21 -63 c12 -34 22 -64
24 -65 1 -2 37 4 79 13 45 10 99 15 132 13 48 -4 61 -10 85 -37 17 -19 28 -43
28 -60 l0 -28 -107 -6 c-126 -6 -202 -30 -253 -80 -44 -43 -60 -84 -60 -155 0
-80 31 -137 95 -177 43 -27 57 -30 129 -30 86 0 157 23 202 66 l21 20 30 -30
c24 -23 130 -69 138 -58 1 1 12 31 24 66 21 65 21 65 1 83 -11 10 -21 20 -21
21 -1 1 -4 95 -8 208 -6 196 -7 207 -30 241 -13 19 -39 45 -58 58 -63 43 -195
60 -315 40z m212 -448 c0 -48 -4 -62 -22 -80 -85 -79 -210 -39 -191 61 10 49
62 75 156 76 l57 1 0 -58z"/>
<path d="M8075 3169 c-49 -19 -96 -59 -129 -112 l-31 -49 -15 73 -16 74 -122
3 -122 3 0 -71 0 -70 45 0 45 0 0 -205 0 -205 -45 0 -45 0 0 -70 0 -70 210 0
210 0 0 70 0 70 -65 0 -65 0 0 103 c0 91 3 109 26 155 28 56 96 122 126 122
15 0 18 -9 18 -60 l0 -60 63 0 63 0 18 141 c13 98 15 144 8 151 -15 15 -141
20 -177 7z"/>
<path d="M8580 3159 c-19 -12 -41 -30 -48 -40 -18 -27 -30 -24 -34 9 -3 27 -4
27 -78 27 l-75 0 0 -342 0 -343 87 0 88 0 0 250 0 251 25 25 c32 32 66 29 76
-6 4 -14 7 -136 8 -272 l1 -248 70 0 70 0 0 254 0 255 27 21 c15 11 36 20 47
18 21 -3 21 -9 24 -275 l2 -273 91 0 91 0 -4 298 c-3 249 -6 303 -20 334 -20
45 -70 78 -117 78 -40 0 -110 -31 -136 -60 -18 -20 -18 -20 -37 10 -32 53 -99
65 -158 29z"/>
<path d="M10257 3166 c-39 -14 -55 -25 -99 -65 l-27 -24 -7 41 -7 42 -88 0
-89 0 0 -345 0 -345 100 0 100 0 0 240 0 239 35 36 c59 59 124 60 144 4 7 -20
11 -124 11 -275 l0 -244 100 0 100 0 0 278 c-1 289 -6 328 -47 374 -46 52
-148 72 -226 44z"/>
<path d="M9200 3090 l0 -70 90 0 90 0 0 -205 0 -205 -95 0 -95 0 0 -70 0 -70
285 0 285 0 0 70 0 70 -85 0 -85 0 0 275 0 275 -195 0 -195 0 0 -70z"/>
<path d="M2747 1693 c-4 -3 -7 -66 -7 -140 0 -112 2 -133 15 -133 12 0 15 15
15 73 0 80 9 97 51 97 32 0 36 -11 34 -102 0 -59 2 -68 17 -68 16 0 18 10 18
73 0 39 -6 83 -13 97 -15 31 -50 37 -83 16 l-24 -16 0 55 c0 51 -7 65 -23 48z"/>
<path d="M1435 1568 c-19 -62 -38 -121 -41 -130 -10 -32 23 -20 35 12 9 28 13
30 61 30 48 0 52 -2 61 -30 6 -16 17 -30 25 -30 19 0 19 -2 -25 135 -31 98
-42 121 -59 123 -18 3 -25 -10 -57 -110z"/>
<path d="M8978 1621 c-26 -4 -56 -15 -67 -25 -25 -22 -27 -68 -6 -86 11 -9 12
-16 4 -26 -14 -17 -2 -54 19 -55 86 -6 109 -16 99 -43 -9 -22 -105 -23 -113
-1 -9 22 -24 18 -24 -5 0 -36 81 -53 135 -28 32 15 43 54 21 76 -8 9 -37 19
-63 22 -57 6 -72 30 -19 30 23 0 43 7 56 20 22 22 27 69 8 88 -9 9 -7 12 10
12 13 0 22 6 22 15 0 16 -7 16 -82 6z"/>
<path d="M1840 1520 c0 -81 3 -100 15 -100 11 0 15 18 17 83 3 74 5 82 23 82
18 0 20 -8 23 -82 2 -58 7 -83 15 -83 9 0 12 20 12 68 -2 71 7 102 29 102 20
0 26 -23 26 -101 0 -39 4 -69 10 -69 6 0 10 36 10 89 0 100 -12 123 -53 104
-16 -8 -29 -8 -42 -1 -13 8 -24 7 -39 -2 -14 -9 -21 -10 -24 -1 -2 6 -8 11
-13 11 -5 0 -9 -45 -9 -100z"/>
<path d="M2095 1595 c-20 -19 -25 -34 -25 -75 0 -62 30 -100 80 -100 50 0 80
38 80 100 0 62 -30 100 -80 100 -19 0 -40 -9 -55 -25z"/>
<path d="M2520 1485 c0 -113 2 -135 15 -135 11 0 15 12 15 47 0 37 3 44 12 35
21 -21 65 -14 87 14 29 37 29 126 1 154 -23 23 -51 25 -83 9 -16 -9 -22 -9
-25 0 -2 6 -8 11 -13 11 -5 0 -9 -60 -9 -135z"/>
<path d="M2979 1591 c-76 -76 9 -210 102 -161 32 18 21 28 -25 23 -37 -5 -46
-2 -60 18 -9 13 -16 27 -16 31 0 5 29 8 65 8 l65 0 0 30 c0 39 -39 80 -75 80
-16 0 -38 -12 -56 -29z"/>
<path d="M4299 1591 c-76 -76 9 -210 102 -161 32 18 21 28 -25 23 -37 -5 -46
-2 -60 18 -9 13 -16 27 -16 31 0 5 29 8 65 8 l65 0 0 30 c0 39 -39 80 -75 80
-16 0 -38 -12 -56 -29z"/>
<path d="M4480 1520 c0 -81 3 -100 15 -100 11 0 15 18 17 83 3 74 5 82 23 82
18 0 20 -8 23 -82 2 -58 7 -83 15 -83 9 0 12 20 12 68 -2 71 7 102 29 102 20
0 26 -23 26 -101 0 -39 4 -69 10 -69 6 0 10 36 10 89 0 100 -12 123 -53 104
-16 -8 -29 -8 -42 -1 -13 8 -24 7 -39 -2 -14 -9 -21 -10 -24 -1 -2 6 -8 11
-13 11 -5 0 -9 -45 -9 -100z"/>
<path d="M4720 1485 c0 -113 2 -135 15 -135 11 0 15 12 15 47 0 37 3 44 12 35
21 -21 65 -14 87 14 29 37 29 126 1 154 -23 23 -51 25 -83 9 -16 -9 -22 -9
-25 0 -2 6 -8 11 -13 11 -5 0 -9 -60 -9 -135z"/>
<path d="M4959 1591 c-76 -76 9 -210 102 -161 32 18 21 28 -25 23 -37 -5 -46
-2 -60 18 -9 13 -16 27 -16 31 0 5 29 8 65 8 l65 0 0 30 c0 39 -39 80 -75 80
-16 0 -38 -12 -56 -29z"/>
<path d="M5397 1613 c-31 -8 -7 -23 38 -23 30 0 45 -5 49 -16 8 -22 4 -25 -41
-31 -21 -3 -46 -12 -55 -21 -23 -20 -23 -64 0 -85 22 -20 42 -21 76 -6 20 9
29 9 41 -1 8 -7 17 -11 19 -9 2 2 0 42 -4 88 -6 64 -12 88 -26 98 -17 13 -61
15 -97 6z"/>
<path d="M6279 1591 c-76 -76 9 -210 102 -161 32 18 21 28 -25 23 -37 -5 -46
-2 -60 18 -9 13 -16 27 -16 31 0 5 29 8 65 8 l65 0 0 30 c0 39 -39 80 -75 80
-16 0 -38 -12 -56 -29z"/>
<path d="M6938 1613 c-36 -9 -17 -23 31 -23 36 0 51 -4 55 -16 8 -22 4 -25
-41 -31 -21 -3 -46 -12 -55 -21 -23 -20 -23 -64 0 -85 22 -20 42 -21 76 -6 20
9 29 9 41 -1 8 -7 17 -11 19 -9 2 2 0 42 -4 88 -6 64 -12 88 -26 98 -17 13
-61 15 -96 6z"/>
<path d="M7379 1591 c-76 -76 9 -210 102 -161 32 18 21 28 -25 23 -37 -5 -46
-2 -60 18 -9 13 -16 27 -16 31 0 5 29 8 65 8 l65 0 0 30 c0 39 -39 80 -75 80
-16 0 -38 -12 -56 -29z"/>
<path d="M9578 1613 c-36 -9 -17 -23 31 -23 36 0 51 -4 55 -16 8 -22 4 -25
-41 -31 -21 -3 -46 -12 -55 -21 -23 -20 -23 -64 0 -85 22 -20 42 -21 76 -6 20
9 29 9 41 -1 8 -7 17 -11 19 -9 2 2 0 42 -4 88 -6 64 -12 88 -26 98 -17 13
-61 15 -96 6z"/>
<path d="M10239 1591 c-76 -76 9 -210 102 -161 32 18 21 28 -25 23 -37 -5 -46
-2 -60 18 -9 13 -16 27 -16 31 0 5 29 8 65 8 l65 0 0 30 c0 39 -39 80 -75 80
-16 0 -38 -12 -56 -29z"/>
</g>
</svg>
